<?xml version="1.0" standalone="no"?>
<!DOCTYPE svg PUBLIC "-//W3C//DTD SVG 20010904//EN"
 "http://www.w3.org/TR/2001/REC-SVG-20010904/DTD/svg10.dtd">
<svg version="1.0" xmlns="http://www.w3.org/2000/svg"
 width="962.000000pt" height="1073.000000pt" viewBox="0 0 962.000000 1073.000000"
 preserveAspectRatio="xMidYMid meet">
<metadata>
Created by potrace 1.12, written by Peter Selinger 2001-2015
</metadata>
<g transform="translate(0.000000,1073.000000) scale(0.100000,-0.100000)"
fill="#000000" stroke="none">
<path d="M5286 10719 c-3 -8 -41 -234 -85 -504 -45 -269 -84 -502 -87 -516 -5
-26 -3 -27 58 -38 35 -6 83 -13 108 -17 l46 -6 22 143 c13 79 25 152 28 161 6
22 196 160 205 150 4 -4 51 -122 104 -262 54 -140 101 -259 106 -264 4 -5 56
-17 116 -27 59 -10 120 -20 134 -23 25 -5 20 10 -131 354 l-158 360 234 172
233 173 -144 24 -144 24 -243 -190 c-134 -104 -248 -192 -254 -196 -6 -3 5 88
28 221 21 125 38 230 38 233 0 3 -37 11 -82 18 -46 7 -93 15 -105 18 -14 3
-25 0 -27 -8z"/>
<path d="M4215 10694 c-11 -2 -45 -9 -75 -15 -245 -49 -399 -284 -375 -574 22
-273 155 -452 375 -506 74 -18 220 -16 299 5 137 35 257 130 315 248 78 159
71 409 -15 586 -60 124 -184 217 -328 248 -62 13 -151 17 -196 8z m201 -212
c55 -28 109 -92 135 -161 30 -78 38 -264 15 -344 -45 -155 -201 -239 -361
-193 -76 23 -152 96 -186 181 -20 53 -23 77 -24 200 0 133 1 142 27 191 32 61
94 117 152 138 60 22 188 16 242 -12z"/>
<path d="M3075 10453 c-49 -19 -93 -37 -97 -41 -4 -4 25 -94 66 -200 65 -169
72 -194 57 -201 -59 -30 -374 -142 -380 -135 -4 5 -38 90 -76 189 -37 99 -71
183 -74 186 -11 12 -196 -67 -195 -82 2 -14 371 -979 377 -986 3 -3 187 66
196 73 2 2 -33 101 -78 220 -46 119 -81 217 -79 219 7 7 373 145 384 145 6 0
46 -91 88 -203 42 -111 80 -208 84 -214 6 -9 32 -3 100 23 74 29 92 40 92 57
0 19 -357 964 -369 978 -3 4 -46 -9 -96 -28z"/>
<path d="M6800 10293 c-68 -25 -145 -106 -166 -178 -38 -134 3 -229 177 -410
139 -144 149 -159 149 -208 0 -71 -81 -123 -167 -108 -55 11 -140 59 -174 101
-43 51 -54 102 -40 174 7 32 11 60 9 62 -5 4 -177 84 -182 84 -13 0 -39 -98
-43 -165 -4 -66 -1 -90 16 -137 43 -112 136 -199 292 -272 210 -99 393 -46
481 141 23 49 29 75 29 129 0 105 -34 163 -196 333 -138 145 -161 181 -143
230 13 36 38 50 88 50 79 1 195 -68 220 -129 8 -19 11 -53 8 -88 l-6 -57 89
-48 c49 -26 93 -45 98 -42 17 10 41 99 41 151 0 86 -34 160 -104 229 -144 142
-338 206 -476 158z"/>
<path d="M1682 9793 c-56 -44 -80 -69 -74 -77 195 -251 412 -541 438 -584 54
-90 43 -154 -40 -230 -56 -51 -100 -72 -156 -72 -93 0 -105 12 -367 354 -97
127 -187 243 -199 258 l-22 27 -86 -66 -86 -66 48 -61 c26 -33 121 -156 210
-272 258 -335 318 -386 460 -385 84 0 147 21 232 75 105 68 185 149 222 224
27 55 32 76 32 136 0 85 -20 134 -97 245 -63 89 -414 548 -425 555 -4 2 -44
-26 -90 -61z"/>
<path d="M7887 9633 c-63 -76 -218 -263 -345 -417 l-230 -278 42 -33 c24 -18
166 -135 316 -259 199 -165 276 -224 285 -216 7 5 33 37 59 69 l46 59 -231
192 c-209 173 -229 193 -216 208 7 9 48 59 90 110 42 51 80 92 84 92 9 -1 394
-319 404 -332 3 -5 28 17 54 49 27 32 55 63 62 69 11 10 -27 46 -194 185 -114
95 -207 177 -205 182 1 5 35 47 74 93 63 75 73 83 87 71 9 -8 109 -91 223
-185 l208 -172 55 67 c30 37 55 70 55 73 0 3 -109 96 -242 207 -134 110 -271
224 -305 252 l-62 52 -114 -138z"/>
<path d="M558 8778 l-96 -129 230 -290 c126 -160 228 -292 226 -294 -1 -1
-147 55 -323 127 -176 71 -330 134 -343 139 -20 8 -31 -3 -121 -124 -86 -114
-97 -133 -83 -141 30 -17 817 -608 829 -623 9 -12 22 0 72 66 34 44 61 82 61
85 0 3 -145 114 -322 247 -366 274 -355 265 -308 245 573 -241 755 -316 761
-314 5 2 35 39 67 82 l59 79 -150 186 c-83 102 -207 255 -275 340 l-125 153
339 -254 339 -255 58 77 c31 43 57 80 57 84 0 5 -815 620 -845 638 -5 3 -54
-53 -107 -124z"/>
<path d="M8690 8488 c-228 -165 -424 -306 -434 -314 -19 -13 -18 -16 29 -84
27 -39 54 -75 61 -81 9 -7 85 42 281 184 147 106 274 197 281 201 10 6 9 -2
-3 -31 -104 -247 -295 -714 -295 -718 0 -8 121 -175 126 -175 2 0 199 141 438
314 l435 314 -60 81 -60 82 -32 -24 c-129 -96 -539 -388 -541 -385 -2 1 68
175 156 385 l160 382 -62 85 c-34 47 -62 86 -63 86 -1 -1 -189 -136 -417 -302z"/>
<path d="M4463 8319 c-352 -36 -756 -158 -1088 -329 -246 -126 -339 -184 -510
-320 -204 -161 -234 -189 -367 -334 -276 -299 -464 -591 -621 -961 -68 -162
-95 -244 -151 -465 -62 -242 -77 -362 -83 -646 -8 -363 12 -544 98 -873 46
-175 71 -244 162 -456 82 -192 90 -207 199 -383 271 -438 626 -793 1058 -1059
201 -124 474 -249 690 -317 117 -37 400 -97 545 -115 402 -51 821 -23 1245 84
145 37 401 135 562 216 118 59 381 225 514 324 191 142 440 397 641 655 141
182 322 531 423 820 189 537 224 1075 109 1659 -47 238 -146 515 -275 773 -58
116 -124 241 -147 277 -134 214 -430 547 -652 733 -170 143 -307 233 -556 367
-179 97 -232 120 -435 190 -224 77 -355 110 -589 147 -119 19 -629 28 -772 13z
m732 -393 c237 -44 483 -112 674 -186 130 -51 356 -169 441 -230 36 -26 85
-60 110 -75 90 -56 283 -220 403 -344 230 -238 451 -577 579 -891 64 -155 143
-451 180 -670 20 -120 17 -609 -5 -735 -71 -405 -196 -745 -393 -1065 -275
-447 -685 -816 -1156 -1039 -166 -79 -420 -173 -548 -204 -235 -57 -372 -72
-670 -72 -299 0 -452 16 -680 72 -128 31 -382 125 -548 204 -469 222 -884 594
-1153 1034 -149 244 -216 390 -289 629 -72 238 -98 371 -115 606 -15 195 -15
233 0 430 39 537 208 985 548 1449 150 206 444 489 617 596 25 15 74 49 110
75 85 61 310 179 441 230 220 86 560 173 774 199 117 14 582 5 680 -13z"/>
<path d="M4570 7654 c-196 -17 -306 -36 -439 -79 -58 -18 -125 -39 -148 -45
-74 -19 -399 -175 -487 -234 -371 -247 -611 -491 -816 -832 -143 -235 -210
-396 -274 -652 -70 -278 -81 -360 -80 -637 0 -227 2 -264 27 -400 44 -246 122
-497 210 -671 204 -407 460 -706 829 -967 158 -112 201 -137 378 -218 197 -90
241 -106 390 -144 273 -69 359 -80 630 -79 210 0 263 3 370 23 160 29 378 84
455 114 95 38 325 145 385 179 179 100 504 363 610 493 30 37 87 106 127 153
93 112 205 298 294 492 107 234 156 392 201 650 20 117 23 168 23 380 -1 271
-12 358 -80 630 -44 175 -58 213 -147 406 -104 225 -189 364 -308 505 -30 36
-80 96 -110 133 -96 119 -311 299 -526 442 -88 59 -413 215 -487 234 -23 6
-89 26 -147 45 -139 44 -237 61 -463 80 -214 17 -207 17 -417 -1z m-50 -968
c0 -225 1 -234 23 -267 12 -19 44 -45 72 -59 43 -21 64 -25 145 -25 83 0 101
3 139 25 81 45 86 61 89 328 l3 232 50 0 50 0 -3 -242 -3 -243 -28 -47 c-41
-70 -122 -108 -249 -115 -180 -11 -305 30 -356 116 -27 46 -27 46 -30 289 l-3
242 50 0 51 0 0 -234z m1501 102 c185 -134 385 -351 522 -565 121 -189 226
-443 266 -644 109 -554 -1 -1099 -309 -1529 -110 -154 -278 -352 -295 -348 -6
2 -71 60 -144 129 l-131 126 93 92 c95 93 245 286 298 386 158 290 221 668
163 973 -52 275 -134 466 -291 677 -78 106 -246 280 -293 305 -13 7 -133 -122
-590 -631 l-575 -639 -41 42 c-23 24 -243 257 -489 518 -246 261 -486 515
-533 563 l-85 88 -65 -63 c-95 -92 -236 -287 -296 -408 -69 -137 -90 -194
-120 -315 -44 -179 -49 -229 -43 -430 4 -170 8 -202 35 -310 32 -124 90 -277
141 -370 57 -106 206 -297 308 -395 l102 -99 -131 -145 -130 -145 -47 39
c-106 90 -353 413 -435 570 -50 95 -110 253 -133 345 -8 33 -23 89 -34 125
-27 88 -49 289 -49 440 2 496 184 958 535 1353 78 89 320 297 344 297 4 0 274
-275 601 -610 560 -575 595 -609 611 -593 64 69 1060 1196 1079 1222 16 21 31
31 42 27 10 -2 64 -37 119 -78z m-1721 -2226 c0 -570 6 -689 37 -780 51 -152
183 -237 383 -249 249 -15 421 65 480 222 45 121 50 201 50 808 l0 567 125 0
125 0 0 -573 c0 -590 -5 -681 -41 -819 -78 -290 -348 -444 -744 -425 -348 17
-551 157 -625 429 -35 132 -40 228 -40 815 l0 573 125 0 125 0 0 -568z"/>
<path d="M110 752 c0 -191 5 -385 10 -431 28 -220 164 -321 435 -321 189 0
320 67 375 192 32 74 39 169 40 551 l0 357 -109 0 -110 0 -3 -397 c-3 -431 -3
-428 -60 -479 -66 -60 -215 -59 -288 3 -66 55 -65 48 -68 481 l-3 392 -110 0
-109 0 0 -348z"/>
<path d="M1300 560 l0 -540 110 0 110 0 0 225 0 225 60 0 c125 0 164 -36 329
-299 l95 -151 128 0 128 0 -82 133 c-122 198 -126 204 -166 249 -20 23 -54 54
-74 69 l-38 27 37 7 c58 11 128 51 165 95 114 133 78 372 -69 452 -72 40 -149
48 -455 48 l-278 0 0 -540z m573 346 c46 -19 69 -49 74 -98 7 -59 -16 -112
-59 -135 -27 -14 -64 -18 -200 -21 l-168 -4 0 136 0 136 160 0 c113 0 170 -4
193 -14z"/>
<path d="M2480 560 l0 -540 110 0 110 0 0 240 0 240 210 0 210 0 0 -240 0
-240 110 0 110 0 0 540 0 540 -110 0 -110 0 0 -210 0 -210 -210 0 -210 0 0
210 0 210 -110 0 -110 0 0 -540z"/>
<path d="M3670 560 l0 -540 410 0 410 0 0 90 0 90 -300 0 -300 0 0 150 0 150
270 0 270 0 0 90 0 90 -270 0 -270 0 0 120 0 120 290 0 290 0 0 90 0 90 -400
0 -400 0 0 -540z"/>
<path d="M4770 560 l0 -540 110 0 110 0 0 540 0 540 -110 0 -110 0 0 -540z"/>
<path d="M5310 560 l0 -540 380 0 380 0 0 90 0 90 -270 0 -270 0 0 450 0 450
-110 0 -110 0 0 -540z"/>
<path d="M6300 560 l0 -540 110 0 110 0 0 540 0 540 -110 0 -110 0 0 -540z"/>
<path d="M7218 688 c-3 -459 -4 -464 -69 -487 -100 -35 -170 13 -185 127 l-7
53 -46 -5 c-25 -3 -72 -8 -105 -11 l-59 -7 6 -58 c22 -204 151 -311 362 -298
173 11 279 97 312 252 9 43 13 176 13 454 l0 392 -109 0 -110 0 -3 -412z"/>
<path d="M8045 1088 c-3 -7 -70 -195 -151 -418 -80 -223 -165 -460 -189 -527
l-44 -123 118 0 118 0 13 43 c7 23 26 79 42 125 l30 82 195 -2 195 -3 42 -120
42 -120 117 -3 117 -3 -36 98 c-19 54 -107 297 -196 541 l-161 442 -124 0
c-90 0 -125 -3 -128 -12z m201 -455 l64 -183 -135 0 -134 0 67 195 c37 107 69
189 71 182 2 -7 33 -94 67 -194z"/>
<path d="M8760 1010 l0 -90 160 0 160 0 0 -450 0 -450 110 0 110 0 0 450 0
450 160 0 160 0 0 90 0 90 -430 0 -430 0 0 -90z"/>
</g>
</svg>
